<svg {...props} viewBox="0 0 128 69">
<path fill-rule="evenodd" clip-rule="evenodd" d="M0 43.5771V33.9771C0.2 33.8771 0.2 33.6771 0.2 33.4771C3.2 20.3771 11.4 12.4771 24.4 9.3771C25.5 9.0771 26.7 9.1771 27.8 8.7771H34.2C34.3 8.9771 34.6 8.8771 34.8 8.8771C41.2 9.5771 47 11.8771 52.1 15.8771C56.5 19.1771 59.9 23.3771 63 27.8771C63.4 28.4771 63.6 28.4771 64 27.8771C65.8 25.2771 67.7 22.7771 69.9 20.4771C75.2 14.7771 81.6 10.7771 89.4 9.3771C90.5 9.0771 91.8 9.1771 92.9 8.7771H99.1C99.2 8.9771 99.4 8.8771 99.6 8.8771C101.5 9.0771 103.3 9.4771 105.1 9.9771C118.5 13.8771 128 26.1771 127.2 40.0771C126.6 51.7771 120.7 60.1771 110.4 65.4771C105.3 68.2771 99.7 68.9771 93.9 68.8771C86.3 68.7771 79.7 66.1771 74 61.1771C70 57.6771 66.9 53.4771 64 49.0771C63.6 48.4771 63.4 48.5771 63 49.1771C61.2 51.8771 59.3 54.5771 57.1 57.1771C53.2 61.5771 48.7 65.1771 43.1 67.0771C36.2 69.4771 29.2 69.5771 22.2 67.6771C12.1 64.7771 5.2 58.3771 1.4 48.5771C0.8 46.9771 0.5 45.1771 0 43.5771ZM31.8 58.2771C37.5 58.4771 42.4 56.5771 46.6 52.6771C50.9 48.6771 54 43.6771 57.1 38.7771C57.2 38.4771 57.2 38.2771 57 37.9771C54.4 33.8771 51.7 29.7771 48.1 26.3771C41.2 19.7771 33.1 17.5771 24 20.4771C16.5 22.9771 11.7 28.2771 10.6 36.2771C9.5 43.7771 12.4 49.7771 18.4 54.2771C22.4 57.1771 26.9 58.3771 31.8 58.2771ZM95.2 58.2771C97.4 58.2771 99.6 58.1771 101.7 57.5771C109.6 55.1771 114.8 50.2771 116.3 42.0771C117.8 33.9771 114.7 27.4771 107.9 22.8771C100.4 17.6771 89.5 18.1771 81.9 23.8771C76.8 27.6771 73.4 32.7771 70 38.0771C69.8 38.3771 69.9 38.5771 70 38.8771C72.7 43.1771 75.4 47.4771 78.9 51.1771C83.3 55.8771 88.6 58.5771 95.2 58.2771Z" fill="#00979C"/>
<path fill-rule="evenodd" clip-rule="evenodd" d="M31.7 35.5772C34.9 35.5772 38.2 35.6772 41.4 35.5772C42.2 35.5772 42.3 35.7772 42.3 36.5772C42.2 37.4772 42.2 38.3772 42.3 39.2772C42.4 40.0772 42.2 40.2772 41.3 40.2772H28.5C26.3 40.2772 24.1 40.1772 21.9 40.2772C21.2 40.2772 21 40.0772 21 39.2772C21.1 38.3772 21.1 37.4772 21 36.4772C21 35.7772 21.2 35.5772 21.9 35.5772C25.1 35.6772 28.4 35.5772 31.7 35.5772ZM94.7 29.1772C95.5 29.1772 96.3 29.2772 97 29.1772C97.5 29.1772 97.7 29.3772 97.7 29.8772C97.6 31.2772 97.7 32.6772 97.6 34.0772C97.6 34.7772 97.8 34.9772 98.5 34.9772C99.8 34.8772 101.2 34.9772 102.6 34.8772C103.2 34.8772 103.4 34.9772 103.4 35.6772V40.2772C103.4 40.7772 103.2 40.9772 102.7 40.9772C101.3 40.8772 99.9 40.9772 98.4 40.8772C97.8 40.8772 97.6 41.0772 97.6 41.6772C97.7 43.0772 97.6 44.4772 97.7 45.8772C97.7 46.4772 97.5 46.7772 96.9 46.7772C95.4 46.6772 93.9 46.6772 92.4 46.7772C91.8 46.7772 91.6 46.5772 91.6 45.9772C91.7 44.4772 91.6 43.0772 91.7 41.5772C91.7 41.0772 91.5 40.8772 91 40.8772C89.6 40.9772 88.2 40.8772 86.8 40.9772C86 40.9772 85.9 40.6772 85.9 40.0772C85.9 38.6772 86 37.2772 85.9 35.8772C85.8 35.0772 86.2 34.8772 86.9 34.8772C88.3 34.9772 89.6 34.8772 91 34.9772C91.5 34.9772 91.7 34.7772 91.7 34.2772C91.6 32.8772 91.7 31.3772 91.6 29.9772C91.6 29.3772 91.8 29.1772 92.4 29.1772C93.2 29.2772 93.9 29.1772 94.7 29.1772ZM124.552 1.55418C124.419 1.75318 124.372 1.81918 124.329 1.88618C124.087 2.24918 124.274 2.98318 123.665 2.97218C123.125 2.96018 123.262 2.28818 123.071 1.92118C123.021 1.82318 122.961 1.73318 122.794 1.46018C122.794 1.96418 122.802 2.24918 122.794 2.53818C122.786 2.73318 122.829 2.97918 122.52 2.99518C122.208 3.01118 122.227 2.76118 122.223 2.56518C122.216 1.88518 122.216 1.21018 122.22 0.534177C122.22 0.304177 122.184 0.0381754 122.544 0.0301754C122.814 0.0261754 123.048 0.0151758 123.161 0.366176C123.305 0.796176 123.356 1.27618 123.688 1.69018C124.005 1.28818 124.059 0.823176 124.18 0.397176C124.282 0.050176 124.497 0.0271771 124.778 0.0271771C125.134 0.0301771 125.118 0.280176 125.122 0.515176C125.126 1.19518 125.126 1.87018 125.118 2.55018C125.114 2.74118 125.141 2.99518 124.837 2.99918C124.532 2.99918 124.555 2.75718 124.552 2.55718C124.544 2.26818 124.552 1.98318 124.552 1.55418ZM120.84 0.022176C120.927 0.022176 121.02 0.007176 121.102 0.022176C121.427 0.085176 121.93 -0.164823 122.036 0.222177C122.18 0.765177 121.61 0.492176 121.368 0.608176C121.126 0.725176 121.173 0.940176 121.168 1.13618C121.157 1.60418 121.161 2.07318 121.161 2.54218C121.161 2.80018 121.111 3.01518 120.778 3.00218C120.473 2.99218 120.485 2.76818 120.485 2.56518C120.476 2.12657 120.475 1.68783 120.481 1.24918C120.493 0.874177 120.497 0.522177 119.958 0.573177C119.77 0.589177 119.606 0.534176 119.606 0.296176C119.606 -0.0318238 119.86 0.0341757 120.048 0.0261757C120.313 0.0141757 120.575 0.022176 120.841 0.022176H120.84Z" fill="#00979C"/>
</svg>
