<svg {...props} viewBox="0 0 128 39">
<path d="M0.3 26.6156C-0.1 25.9156 -0.1 25.1156 0.3 24.5156L14.7 0.915622C15.5 -0.384377 17.4 -0.284377 18.1 1.11562L31.2 29.8156C31.7 30.9156 31.2 32.1156 30 32.4156L9.6 38.6156C8.7 38.9156 7.9 38.5156 7.4 37.8156L0.3 26.6156ZM11.3 33.2156C11.2 33.7156 11.7 34.2156 12.2 34.0156L26.3 29.8156C26.7 29.7156 27 29.2156 26.8 28.8156L17.7 7.71562C17.4 7.11562 16.5 7.21562 16.3 7.91562L11.3 33.2156ZM69 14.8156H73.1V29.6156H69V14.8156ZM68.9 11.0156C68.9 9.68229 69.6 9.01562 71 9.01562C72.4667 9.01562 73.2 9.68229 73.2 11.0156C73.2 11.6156 73.0333 12.0823 72.7 12.4156C72.3 12.8156 71.7333 13.0156 71 13.0156C69.6 13.0156 68.9 12.349 68.9 11.0156ZM125.2 29.6156L124.4 27.6156H124.3C123.633 28.4823 122.967 29.0823 122.3 29.4156C121.567 29.749 120.6 29.9156 119.4 29.9156C118 29.9156 116.9 29.5156 116.1 28.7156C115.3 27.849 114.9 26.6823 114.9 25.2156C114.9 23.6156 115.433 22.449 116.5 21.7156C117.633 20.9823 119.3 20.5823 121.5 20.5156L124 20.4156V19.7156C124 18.249 123.233 17.5156 121.7 17.5156C120.567 17.5156 119.2 17.8823 117.6 18.6156L116.3 15.8156C117.967 14.949 119.833 14.5156 121.9 14.5156C123.9 14.5156 125.433 14.949 126.5 15.8156C127.5 16.6823 128 17.9823 128 19.7156V29.6156H125.2ZM124 22.7156L122.5 22.8156C121.3 22.8156 120.433 23.0156 119.9 23.4156C119.3 23.8156 119 24.4156 119 25.2156C119 26.349 119.667 26.9156 121 26.9156C121.933 26.9156 122.667 26.649 123.2 26.1156C123.733 25.5823 124 24.8823 124 24.0156V22.7156ZM103.2 29.5156H99.1V20.9156C99.1 19.849 98.9333 19.049 98.6 18.5156C98.2667 17.9823 97.7 17.7156 96.9 17.7156C95.9 17.7156 95.1667 18.0823 94.7 18.8156C94.2333 19.549 94 20.8156 94 22.6156V29.5156H90V14.7156H93L93.6 16.6156H93.8C94.2 15.949 94.7667 15.4156 95.5 15.0156C96.2333 14.6156 97.1 14.4156 98.1 14.4156C100.3 14.4156 101.8 15.149 102.6 16.6156H102.9C103.3 15.949 103.9 15.4156 104.7 15.0156C105.433 14.6156 106.3 14.4156 107.3 14.4156C108.967 14.4156 110.233 14.849 111.1 15.7156C111.9 16.5823 112.3 17.9823 112.3 19.9156V29.5156H108.3V20.9156C108.3 19.849 108.133 19.049 107.8 18.5156C107.4 17.9823 106.833 17.7156 106.1 17.7156C105.1 17.7156 104.367 18.049 103.9 18.7156C103.433 19.449 103.2 20.5823 103.2 22.1156V29.5156ZM80.9 29.8156C79.8333 29.8156 78.9333 29.7156 78.2 29.5156C77.4667 29.3823 76.7667 29.1823 76.1 28.9156V25.6156C76.8333 25.949 77.6667 26.2156 78.6 26.4156C79.5333 26.6823 80.3667 26.8156 81.1 26.8156C82.5667 26.8156 83.3 26.3823 83.3 25.5156C83.3 25.249 83.2 25.0156 83 24.8156C82.8 24.6156 82.4667 24.3823 82 24.1156C81.4667 23.849 80.8333 23.549 80.1 23.2156C78.9667 22.749 78.1333 22.3156 77.6 21.9156C77.0667 21.5156 76.6667 21.049 76.4 20.5156C76.1333 19.9823 76 19.3156 76 18.5156C76 17.249 76.5333 16.249 77.6 15.5156C78.6 14.7823 80.0333 14.4156 81.9 14.4156C83.6333 14.4156 85.3667 14.8156 87.1 15.6156L85.8 18.5156C85.0667 18.1823 84.4 17.9156 83.8 17.7156C83.1333 17.5156 82.4667 17.4156 81.8 17.4156C80.6 17.4156 80 17.749 80 18.4156C80 18.749 80.2 19.049 80.6 19.3156C81 19.5823 81.8333 19.9823 83.1 20.5156C84.2333 20.9823 85.1 21.4156 85.7 21.8156C86.2333 22.2156 86.6 22.6823 86.8 23.2156C87.0667 23.749 87.2 24.3823 87.2 25.1156C87.2 26.649 86.6667 27.8156 85.6 28.6156C84.6 29.4156 83.0333 29.8156 80.9 29.8156ZM66.6 18.3156C66.2667 18.249 65.8667 18.2156 65.4 18.2156C64.1333 18.2156 63.1333 18.549 62.4 19.2156C61.6667 19.8823 61.3 20.8156 61.3 22.0156V29.5156H57.3V14.7156H60.4L61 17.2156H61.2C61.6 16.349 62.2 15.6823 63 15.2156C63.8 14.6823 64.6333 14.4156 65.5 14.4156C66.1 14.4156 66.5667 14.449 66.9 14.5156L66.6 18.3156ZM54.7 16.2156C54.7 18.2823 54.0667 19.8823 52.8 21.0156C51.4667 22.0823 49.6 22.6156 47.2 22.6156H45.5V29.5156H41.4V10.1156H47.6C49.9333 10.1156 51.7 10.649 52.9 11.7156C54.1 12.7156 54.7 14.2156 54.7 16.2156ZM45.5 19.3156H46.8C48.0667 19.3156 49.0333 19.049 49.7 18.5156C50.3 18.049 50.6 17.3156 50.6 16.3156C50.6 15.3823 50.3333 14.6823 49.8 14.2156C49.2667 13.749 48.4333 13.5156 47.3 13.5156H45.5V19.3156Z" fill="white"/>
</svg>
